<svg width="473" height="421" viewBox="0 0 473 421" fill="none" xmlns="http://www.w3.org/2000/svg">
<path d="M18.5 232L17.5 4M452.5 239L451.5 11M19.0138 5.49349L453.014 9.49349M65.5475 367.322L34.5526 243.271C30.2645 226.109 5 229.217 5 246.907V400.993C5 409.278 11.7157 415.993 20 415.993H453C461.284 415.993 468 409.278 468 400.993V251.172C468 233.409 442.583 230.387 438.418 247.655L409.587 367.202C407.963 373.939 401.935 378.686 395.005 378.686H80.1002C73.2164 378.686 67.2162 374 65.5475 367.322Z" stroke="#848484" stroke-width="10"/>
</svg>
