<svg width="260" height="490" viewBox="0 0 260 490" fill="none" xmlns="http://www.w3.org/2000/svg">
<path d="M21 5H239C247.837 5 255 12.1634 255 21V469C255 477.837 247.837 485 239 485H21C12.1634 485 5 477.837 5 469V21C5 12.1635 12.1634 5 21 5ZM44 413H215C217.761 413 220 415.239 220 418V434C220 436.761 217.761 439 215 439H44C41.2386 439 39 436.761 39 434V418C39 415.239 41.2386 413 44 413ZM215 403H44C35.7157 403 29 409.716 29 418V434C29 442.284 35.7157 449 44 449H215C223.284 449 230 442.284 230 434V418C230 409.716 223.284 403 215 403Z" stroke="#848484" stroke-width="10"/>
</svg>
